<svg width="100%" height="100%" viewBox="0 0 800 600" xmlns="http://www.w3.org/2000/svg">
  <defs>
    <linearGradient id="grad" x1="0%" y1="0%" x2="100%" y2="100%">
      <stop offset="0%" stop-color="hsl(210, 40%, 45%)" />
      <stop offset="100%" stop-color="hsl(210, 40%, 85%)" />
    </linearGradient>
  </defs>
  <rect x="0" y="0" width="800" height="600" fill="url(#grad)" rx="20" />
  <image href="https://raw.githubusercontent.com/wilson2403/multimedia/main/creatuapp/1779050799964-logo.jpg" x="50" y="50" width="80" height="80" />
  <g transform="translate(320, 200) scale(0.7)">
    <rect x="-100" y="-200" width="200" height="400" fill="hsl(0, 0%, 100%" rx="40" opacity="0.2" />
    <g transform="translate(0, -100)">
      <rect x="-80" y="-50" width="160" height="100" fill="hsl(0, 0%, 100%" rx="20" opacity="0.5" />
      <text x="-70" y="-30" font-size="24" font-family="Helvetica" fill="hsl(210, 40%, 45%)">Hello, how can I help you?</text>
      <circle cx="0" cy="50" r="30" fill="hsl(210, 40%, 85%)" />
      <g transform="translate(-20, 60)">
        <path d="M 0 0 L 20 20 L -20 20 Z" fill="hsl(210, 40%, 85%" opacity="0.5" />
      </g>
    </g>
    <g transform="translate(0, 100)">
      <rect x="-80" y="-50" width="160" height="100" fill="hsl(0, 0%, 100%" rx="20" opacity="0.5" />
      <text x="-70" y="-30" font-size="24" font-family="Helvetica" fill="hsl(210, 40%, 45%)">Customer Query</text>
    </g>
  </g>
  <g transform="translate(500, 400)">
    <circle cx="0" cy="0" r="20" fill="hsl(210, 40%, 85%)" opacity="0.5" />
    <path d="M -10 -10 L 10 10 M -10 10 L 10 -10" stroke="hsl(210, 40%, 45%)" stroke-width="5" />
  </g>
  <g transform="translate(100, 500)">
    <rect x="-20" y="-20" width="40" height="40" fill="hsl(210, 40%, 85%)" rx="10" opacity="0.5" />
    <path d="M -15 -15 L 15 15 M -15 15 L 15 -15" stroke="hsl(210, 40%, 45%)" stroke-width="5" />
    <path d="M 0 -20 L 0 20" stroke="hsl(210, 40%, 45%)" stroke-width="5" />
  </g>
</svg>